<svg width="1600" height="900" viewBox="0 0 1600 900" fill="none" xmlns="http://www.w3.org/2000/svg">
  <defs>
    <linearGradient id="bg" x1="176" y1="79" x2="1440" y2="841" gradientUnits="userSpaceOnUse">
      <stop stop-color="#0B1120"/>
      <stop offset="0.52" stop-color="#1E1B4B"/>
      <stop offset="1" stop-color="#0F172A"/>
    </linearGradient>
    <linearGradient id="cardA" x1="517" y1="135" x2="1128" y2="738" gradientUnits="userSpaceOnUse">
      <stop stop-color="#111827"/>
      <stop offset="1" stop-color="#172554"/>
    </linearGradient>
    <linearGradient id="accent" x1="550" y1="138" x2="1089" y2="711" gradientUnits="userSpaceOnUse">
      <stop stop-color="#818CF8"/>
      <stop offset="1" stop-color="#22D3EE"/>
    </linearGradient>
    <filter id="glow" x="0" y="0" width="1600" height="900" filterUnits="userSpaceOnUse" color-interpolation-filters="sRGB">
      <feGaussianBlur stdDeviation="58"/>
    </filter>
  </defs>

  <rect width="1600" height="900" rx="32" fill="url(#bg)"/>
  <g filter="url(#glow)" opacity="0.5">
    <circle cx="300" cy="180" r="155" fill="#818CF8"/>
    <circle cx="1302" cy="228" r="146" fill="#22D3EE"/>
    <circle cx="1210" cy="748" r="176" fill="#38BDF8"/>
  </g>

  <text x="151" y="182" fill="#F8FAFC" font-family="Inter, Arial, sans-serif" font-size="68" font-weight="800">ApplyandConnect</text>
  <text x="151" y="238" fill="#A5B4FC" font-family="Inter, Arial, sans-serif" font-size="28" font-weight="500">Job discovery, AI resume tailoring, recruiter outreach, and pipeline tracking in one workspace</text>

  <rect x="518" y="131" width="574" height="640" rx="42" fill="#050816" stroke="url(#accent)" stroke-width="4"/>
  <rect x="553" y="165" width="506" height="572" rx="32" fill="url(#cardA)"/>
  <rect x="588" y="206" width="438" height="88" rx="24" fill="#111C34"/>
  <text x="621" y="258" fill="#F8FAFC" font-family="Inter, Arial, sans-serif" font-size="30" font-weight="700">Career Search Workspace</text>

  <rect x="588" y="326" width="197" height="165" rx="26" fill="#13203B"/>
  <text x="622" y="376" fill="#E0E7FF" font-family="Inter, Arial, sans-serif" font-size="24" font-weight="700">AI Resume</text>
  <rect x="622" y="398" width="126" height="10" rx="5" fill="#818CF8"/>
  <rect x="622" y="423" width="102" height="10" rx="5" fill="#6366F1"/>
  <rect x="622" y="448" width="137" height="10" rx="5" fill="#22D3EE"/>

  <rect x="829" y="326" width="197" height="165" rx="26" fill="#102B39"/>
  <text x="862" y="376" fill="#ECFEFF" font-family="Inter, Arial, sans-serif" font-size="24" font-weight="700">Recruiters</text>
  <circle cx="882" cy="423" r="14" fill="#67E8F9"/>
  <circle cx="929" cy="402" r="14" fill="#A5B4FC"/>
  <circle cx="972" cy="438" r="14" fill="#818CF8"/>
  <path d="M882 423L929 402L972 438" stroke="#67E8F9" stroke-width="8" stroke-linecap="round" stroke-linejoin="round"/>

  <rect x="588" y="524" width="438" height="177" rx="28" fill="#111C34"/>
  <text x="621" y="572" fill="#F8FAFC" font-family="Inter, Arial, sans-serif" font-size="28" font-weight="700">Application Pipeline</text>
  <rect x="621" y="596" width="90" height="80" rx="18" fill="#312E81"/>
  <rect x="730" y="596" width="90" height="80" rx="18" fill="#1D4ED8"/>
  <rect x="839" y="596" width="90" height="80" rx="18" fill="#0891B2"/>
  <rect x="948" y="596" width="45" height="80" rx="18" fill="#22D3EE"/>
  <text x="643" y="643" fill="#E0E7FF" font-family="Inter, Arial, sans-serif" font-size="18" font-weight="700">Applied</text>
  <text x="741" y="643" fill="#DBEAFE" font-family="Inter, Arial, sans-serif" font-size="18" font-weight="700">Screen</text>
  <text x="856" y="643" fill="#CFFAFE" font-family="Inter, Arial, sans-serif" font-size="18" font-weight="700">Interview</text>
  <text x="956" y="643" fill="#082F49" font-family="Inter, Arial, sans-serif" font-size="18" font-weight="800">Offer</text>

  <rect x="187" y="289" width="278" height="244" rx="30" fill="#0B1120" stroke="#818CF8" stroke-width="3"/>
  <text x="222" y="348" fill="#F8FAFC" font-family="Inter, Arial, sans-serif" font-size="30" font-weight="700">All in One</text>
  <text x="222" y="391" fill="#CBD5E1" font-family="Inter, Arial, sans-serif" font-size="22" font-weight="500">Search jobs, tailor resumes,</text>
  <text x="222" y="422" fill="#CBD5E1" font-family="Inter, Arial, sans-serif" font-size="22" font-weight="500">find recruiters, and send outreach.</text>
  <text x="222" y="470" fill="#22D3EE" font-family="Inter, Arial, sans-serif" font-size="26" font-weight="800">17.5 hrs/week saved</text>

  <rect x="1118" y="252" width="295" height="255" rx="30" fill="#0B1120" stroke="#22D3EE" stroke-width="3"/>
  <text x="1152" y="311" fill="#F8FAFC" font-family="Inter, Arial, sans-serif" font-size="30" font-weight="700">Live Metrics</text>
  <text x="1152" y="356" fill="#CFFAFE" font-family="Inter, Arial, sans-serif" font-size="22" font-weight="600">32,000+ jobs</text>
  <text x="1152" y="392" fill="#CFFAFE" font-family="Inter, Arial, sans-serif" font-size="22" font-weight="600">42,000+ recruiters</text>
  <text x="1152" y="428" fill="#CFFAFE" font-family="Inter, Arial, sans-serif" font-size="22" font-weight="600">1,000+ fresh openings daily</text>
  <rect x="1152" y="458" width="188" height="12" rx="6" fill="#22D3EE"/>

  <text x="151" y="769" fill="#818CF8" font-family="Inter, Arial, sans-serif" font-size="24" font-weight="700">AI Resume Tailoring</text>
  <circle cx="395" cy="759" r="4" fill="#475569"/>
  <text x="414" y="769" fill="#22D3EE" font-family="Inter, Arial, sans-serif" font-size="24" font-weight="700">Recruiter Finder</text>
  <circle cx="606" cy="759" r="4" fill="#475569"/>
  <text x="625" y="769" fill="#38BDF8" font-family="Inter, Arial, sans-serif" font-size="24" font-weight="700">Pipeline Tracking</text>
</svg>